<svg width="54" height="54" viewBox="0 0 54 54" fill="none" xmlns="http://www.w3.org/2000/svg">
<path d="M2 29.7778V24.2222C2 13.7466 2 8.50874 5.25437 5.25437C8.50874 2 13.7466 2 24.2222 2H29.7778C40.2534 2 45.4913 2 48.7456 5.25437C52 8.50874 52 13.7466 52 24.2222V29.7778C52 40.2534 52 45.4913 48.7456 48.7456C45.4913 52 40.2534 52 29.7778 52H27" stroke="white" stroke-width="2.77778"/>
<path fill-rule="evenodd" clip-rule="evenodd" d="M46.4378 33.3621L44.787 31.7113L44.7588 31.6831L44.7588 31.683C44.5682 31.4925 44.4402 31.3645 44.3317 31.2647C41.0213 28.223 35.7372 29.0805 33.5586 33.013C33.4871 33.1419 33.4062 33.3037 33.2858 33.5447L33.2858 33.5447L33.2678 33.5806C33.1862 33.7439 33.1666 33.7822 33.1558 33.8017C32.6981 34.6245 31.5718 34.7631 30.9282 34.0759C30.913 34.0596 30.8847 34.0272 30.7659 33.8886L16.9434 17.7624C16.4442 17.18 15.5674 17.1125 14.985 17.6117C14.4026 18.1109 14.3352 18.9877 14.8344 19.5701L28.6568 35.6963L28.6772 35.7201L28.6773 35.7202C28.7644 35.8219 28.8374 35.907 28.9007 35.9747C30.8313 38.0362 34.2103 37.6202 35.5833 35.152C35.6283 35.071 35.6784 34.9707 35.7383 34.8508L35.7384 34.8508L35.7523 34.8228C35.8972 34.5331 35.9495 34.4293 35.9884 34.3591C37.2955 31.9996 40.466 31.4851 42.4523 33.3102C42.5114 33.3645 42.5938 33.4464 42.8228 33.6754L46.3765 37.2291C46.4131 36.0891 46.43 34.8108 46.4378 33.3621Z" fill="white"/>
<circle cx="39.4997" cy="14.4997" r="4.16667" fill="white"/>
<path d="M15.8887 38.1113V36.7224H17.2776V38.1113H15.8887ZM2.86742 50.307C2.26844 50.7862 1.39442 50.689 0.915243 50.0901C0.436064 49.4911 0.533177 48.6171 1.13215 48.1379L2.86742 50.307ZM14.4998 52.0002V38.1113H17.2776V52.0002H14.4998ZM15.8887 39.5002H1.99978V36.7224H15.8887V39.5002ZM16.7563 39.1959L2.86742 50.307L1.13215 48.1379L15.021 37.0268L16.7563 39.1959Z" fill="white"/>
</svg>
