<svg width="15" height="15" viewBox="0 0 15 15" fill="none" xmlns="http://www.w3.org/2000/svg">
<ellipse cx="6.74823" cy="3.94745" rx="2.99921" ry="3.15789" stroke="black" stroke-linecap="round"/>
<path fill-rule="evenodd" clip-rule="evenodd" d="M7.02939 9.74848C6.68112 9.74273 6.31658 9.7641 5.91361 9.806C4.66142 9.93618 3.4758 10.3574 2.50856 11.0272C1.5409 11.6974 0.826839 12.593 0.480752 13.613C0.392022 13.8745 0.532079 14.1584 0.793578 14.2471C1.05508 14.3359 1.33899 14.1958 1.42772 13.9343C1.69575 13.1444 2.26163 12.4146 3.0779 11.8493C3.89459 11.2838 4.91675 10.915 6.01701 10.8006C6.57831 10.7423 7.03674 10.7283 7.47785 10.7771C7.23151 10.4761 7.08228 10.1184 7.02939 9.74848Z" fill="black"/>
<path d="M13.3677 9.60889L9.12616 14.0748" stroke="black" stroke-linecap="round"/>
<path d="M13.3677 14.0752L9.12616 9.60926" stroke="black" stroke-linecap="round"/>
</svg>
