<svg width="13" height="13" viewBox="0 0 13 13" fill="none" xmlns="http://www.w3.org/2000/svg">
<path d="M1.0835 6.49984L0.872011 6.33065L0.73666 6.49984L0.872011 6.66903L1.0835 6.49984ZM5.9585 6.77067C6.10807 6.77067 6.22933 6.64941 6.22933 6.49984C6.22933 6.35026 6.10807 6.229 5.9585 6.229V6.77067ZM3.03868 3.62232L0.872011 6.33065L1.29498 6.66903L3.46165 3.96069L3.03868 3.62232ZM0.872011 6.66903L3.03868 9.37736L3.46165 9.03898L1.29498 6.33065L0.872011 6.66903ZM1.0835 6.77067H5.9585V6.229H1.0835V6.77067Z" fill="#88879A"/>
<path d="M7.22697 11.1352L7.2715 10.8681L7.22697 11.1352ZM5.67323 10.616L5.46658 10.7911L5.67323 10.616ZM8.13221 11.2861L8.08768 11.5533L8.13221 11.2861ZM11.3419 11.2385L11.5169 11.4451L11.3419 11.2385ZM11.3419 1.76184L11.1668 1.96849L11.3419 1.76184ZM5.67323 2.38431L5.87988 2.55937L5.67323 2.38431ZM7.2715 2.13223L8.17673 1.98136L8.08768 1.44706L7.18245 1.59794L7.2715 2.13223ZM11.6457 4.91999V8.08033H12.1873V4.91999H11.6457ZM8.17673 11.019L7.2715 10.8681L7.18245 11.4024L8.08768 11.5533L8.17673 11.019ZM5.68734 4.40496V4.00227H5.14567V4.40496H5.68734ZM5.68734 8.99805V8.70256H5.14567V8.99805H5.68734ZM7.2715 10.8681C6.8323 10.7949 6.52771 10.7436 6.2994 10.6757C6.07834 10.6098 5.96139 10.5372 5.87988 10.441L5.46658 10.7911C5.6418 10.9979 5.86939 11.1128 6.14484 11.1948C6.41305 11.2747 6.75697 11.3315 7.18245 11.4024L7.2715 10.8681ZM5.14567 8.99805C5.14567 9.4294 5.14518 9.77798 5.17985 10.0557C5.21545 10.3409 5.29136 10.5842 5.46658 10.7911L5.87988 10.441C5.79837 10.3447 5.74592 10.2174 5.71734 9.98856C5.68783 9.75218 5.68734 9.44331 5.68734 8.99805H5.14567ZM11.6457 8.08033C11.6457 8.97906 11.645 9.62406 11.5765 10.1066C11.5091 10.5817 11.3819 10.8496 11.1668 11.0318L11.5169 11.4451C11.8764 11.1406 12.0366 10.7198 12.1128 10.1828C12.188 9.6532 12.1873 8.96251 12.1873 8.08033H11.6457ZM8.08768 11.5533C8.95786 11.6983 9.63904 11.8125 10.1738 11.8254C10.716 11.8385 11.1574 11.7497 11.5169 11.4451L11.1668 11.0318C10.9517 11.2141 10.6666 11.2955 10.1868 11.2839C9.69956 11.2721 9.06323 11.1667 8.17673 11.019L8.08768 11.5533ZM8.17673 1.98136C9.06323 1.83361 9.69956 1.72821 10.1868 1.71644C10.6666 1.70485 10.9517 1.78624 11.1668 1.96849L11.5169 1.55519C11.1574 1.25064 10.716 1.16183 10.1738 1.17493C9.63904 1.18785 8.95786 1.30203 8.08768 1.44706L8.17673 1.98136ZM12.1873 4.91999C12.1873 4.03781 12.188 3.34713 12.1128 2.81756C12.0366 2.2805 11.8764 1.85973 11.5169 1.55519L11.1668 1.96849C11.3819 2.15074 11.5091 2.41859 11.5765 2.89368C11.645 3.37627 11.6457 4.02126 11.6457 4.91999H12.1873ZM7.18245 1.59794C6.75697 1.66885 6.41305 1.72567 6.14484 1.80552C5.86939 1.88753 5.6418 2.00241 5.46658 2.20925L5.87988 2.55937C5.96139 2.46315 6.07834 2.39048 6.2994 2.32467C6.52771 2.2567 6.8323 2.20543 7.2715 2.13223L7.18245 1.59794ZM5.68734 4.00227C5.68734 3.55702 5.68783 3.24814 5.71734 3.01177C5.74592 2.78289 5.79837 2.65559 5.87988 2.55937L5.46658 2.20925C5.29136 2.41609 5.21545 2.65947 5.17985 2.94466C5.14518 3.22235 5.14567 3.57093 5.14567 4.00227H5.68734Z" fill="#88879A"/>
</svg>
