<svg width="29" height="33" viewBox="0 0 29 33" fill="none" xmlns="http://www.w3.org/2000/svg">
<path d="M21.4508 0.720703C19.517 0.720703 17.6134 1.43031 16.146 2.81823L3.10156 15.1567C-1.03401 19.0684 -1.0337 25.4329 3.10156 29.3458C7.23713 33.2576 13.9658 33.2573 18.1027 29.3458L25.7663 22.097C26.3271 21.5666 26.3271 20.6739 25.7663 20.1434C25.2479 19.6531 24.4368 19.6531 23.9184 20.1434L16.146 27.4951C13.0726 30.401 8.13015 30.4007 5.05823 27.4951C1.986 24.588 1.98631 19.9131 5.05823 17.0074L18.1027 4.669C19.9739 2.89904 22.9711 2.89904 24.8423 4.669C26.7136 6.43896 26.7136 9.27389 24.8423 11.0438L11.7979 23.3823C11.1274 24.0157 10.0751 24.0148 9.40638 23.3823C8.7367 22.7481 8.73763 21.7528 9.40638 21.1202L20.3311 10.7868C20.8919 10.2564 20.8919 9.36365 20.3311 8.83318C19.8127 8.34285 19.0016 8.34285 18.4832 8.83318L7.44971 19.2695C5.7169 20.9085 5.71782 23.593 7.44971 25.233C9.18253 26.8721 12.0206 26.8712 13.7545 25.233L26.799 12.8946C29.7337 10.1188 29.7337 5.59408 26.799 2.81823C25.3316 1.43031 23.3845 0.720703 21.4508 0.720703Z" fill="white" fill-opacity="0.5"/>
</svg>
