<svg width="15" height="15" viewBox="0 0 15 15" fill="none" xmlns="http://www.w3.org/2000/svg">
<ellipse cx="7.10516" cy="3.94745" rx="3.15789" ry="3.15789" stroke="#88879A" stroke-linecap="round"/>
<path fill-rule="evenodd" clip-rule="evenodd" d="M7.45359 9.7495C7.07309 9.74073 6.67485 9.762 6.23185 9.80575C4.92161 9.93512 3.68011 10.3538 2.66631 11.0206C1.6524 11.6874 0.899707 12.5816 0.533922 13.6054C0.441017 13.8655 0.576511 14.1516 0.836556 14.2445C1.0966 14.3374 1.38272 14.2019 1.47563 13.9419C1.75645 13.1559 2.35142 12.4246 3.21583 11.856C4.08035 11.2874 5.16344 10.9161 6.33011 10.8009C6.95496 10.7392 7.46057 10.7268 7.95136 10.7855C7.67799 10.4859 7.51234 10.1243 7.45359 9.7495Z" fill="#88879A"/>
<path d="M14.075 9.60889L9.60901 14.0748" stroke="#88879A" stroke-linecap="round"/>
<path d="M14.075 14.0752L9.60901 9.60926" stroke="#88879A" stroke-linecap="round"/>
</svg>
