<svg width="13" height="13" viewBox="0 0 13 13" fill="none" xmlns="http://www.w3.org/2000/svg">
<path d="M5.84399 3.21631V3.21631C3.49637 3.21631 2.32255 3.21631 1.57735 3.9258C1.54686 3.95483 1.51708 3.9846 1.48805 4.0151C0.778564 4.76029 0.778564 5.93411 0.778564 8.28174V10.9351C0.778564 11.5415 0.778564 11.8447 0.966962 12.0331C1.15536 12.2215 1.45858 12.2215 2.06502 12.2215H4.71834C7.06597 12.2215 8.23979 12.2215 8.98499 11.512C9.01548 11.483 9.04525 11.4532 9.07428 11.4227C9.78377 10.6775 9.78377 9.50372 9.78377 7.15609V7.15609" stroke="black" stroke-width="0.643229"/>
<path d="M3.35156 6.43213L7.21094 6.43213" stroke="black" stroke-width="0.643229" stroke-linecap="round" stroke-linejoin="round"/>
<path d="M3.35156 9.00537H5.28125" stroke="black" stroke-width="0.643229" stroke-linecap="round" stroke-linejoin="round"/>
<path d="M9.78394 5.146L9.78394 1.28662M7.85425 3.21631H11.7136" stroke="black" stroke-width="0.643229" stroke-linecap="round" stroke-linejoin="round"/>
</svg>
